<?xml version="1.0" encoding="utf-8" ?>
<svg baseProfile="tiny" height="2250" version="1.2" width="1129" xmlns="http://www.w3.org/2000/svg" xmlns:ev="http://www.w3.org/2001/xml-events" xmlns:xlink="http://www.w3.org/1999/xlink"><defs /><rect fill="white" height="16" opacity="0.3" rx="1" ry="1" stroke="black" width="25" x="0" y="19" /><text fill="black" font-family="Montserrat" font-size="12" x="5" y="31">Name</text><rect fill="green" height="16" opacity="0.3" rx="1" ry="1" stroke="green" width="55" x="35" y="19" /><text fill="black" font-family="Montserrat" font-size="12" x="40" y="31">GPIOX</text><rect fill="green" height="16" opacity="0.6" rx="1" ry="1" stroke="green" width="35" x="90" y="19" /><text fill="white" font-family="Montserrat" font-size="12" x="95" y="31">Digital</text><rect fill="green" height="16" opacity="0.9" rx="1" ry="1" stroke="green" width="35" x="125" y="19" /><text fill="white" font-family="Montserrat" font-size="12" x="130" y="31">Analog</text><rect fill="gray" height="16" opacity="0.9" rx="5" ry="5" stroke="gray" width="40" x="170" y="19" /><text fill="white" font-family="Montserrat" font-size="12" x="175" y="31">PWM</text><rect fill="blue" height="16" opacity="0.7" rx="5" ry="5" stroke="blue" width="50" x="220" y="19" /><text fill="white" font-family="Montserrat" font-size="12" x="225" y="31">JTAG/USB</text><rect fill="purple" height="16" opacity="0.3" rx="5" ry="5" stroke="purple" width="85" x="280" y="19" /><text fill="black" font-family="Montserrat" font-size="12" x="285" y="31">ADCX_CH   </text><rect fill="yellow" height="16" opacity="1" rx="1" ry="1" stroke="yellow" width="65" x="375" y="19" /><text fill="black" font-family="Montserrat" font-size="12" x="380" y="31">TOUCH</text><rect fill="orange" height="16" opacity="1" rx="5" ry="5" stroke="orange" width="50" x="450" y="19" /><text fill="black" font-family="Montserrat" font-size="12" x="455" y="31">SERIAL</text><rect fill="orange" height="16" opacity="0.6" rx="5" ry="5" stroke="orange" width="35" x="510" y="19" /><text fill="black" font-family="Montserrat" font-size="12" x="515" y="31">I2C</text><rect fill="orange" height="16" opacity="0.3" rx="1" ry="1" stroke="orange" width="50" x="555" y="19" /><text fill="black" font-family="Montserrat" font-size="12" x="560" y="31">SPI</text><rect fill="purple" height="16" opacity="1" rx="1" ry="1" stroke="purple" width="35" x="615" y="19" /><text fill="white" font-family="Montserrat" font-size="12" x="620" y="31">RTC</text><rect fill="red" height="16" opacity="1" rx="5" ry="5" stroke="red" width="50" x="660" y="19" /><text fill="white" font-family="Montserrat" font-size="12" x="665" y="31">POWER</text><rect fill="black" height="16" opacity="1" rx="5" ry="5" stroke="black" width="35" x="720" y="19" /><text fill="white" font-family="Montserrat" font-size="12" x="725" y="31">GND</text><rect fill="white" height="16" opacity="0.3" rx="1" ry="1" stroke="black" width="25" x="0" y="57" /><text fill="black" font-family="Montserrat" font-size="12" x="5" y="69">21</text><rect fill="red" height="16" opacity="1" rx="5" ry="5" stroke="red" width="50" x="35" y="57" /><text fill="white" font-family="Montserrat" font-size="12" x="40" y="69">VBUS</text><rect fill="white" height="16" opacity="0.3" rx="1" ry="1" stroke="black" width="25" x="0" y="76" /><text fill="black" font-family="Montserrat" font-size="12" x="5" y="88">22</text><rect fill="red" height="16" opacity="1" rx="5" ry="5" stroke="red" width="50" x="35" y="76" /><text fill="white" font-family="Montserrat" font-size="12" x="40" y="88">VSYS</text><rect fill="white" height="16" opacity="0.3" rx="1" ry="1" stroke="black" width="25" x="0" y="95" /><text fill="black" font-family="Montserrat" font-size="12" x="5" y="107">23</text><rect fill="black" height="16" opacity="1" rx="5" ry="5" stroke="black" width="35" x="35" y="95" /><text fill="white" font-family="Montserrat" font-size="12" x="40" y="107">GND</text><rect fill="white" height="16" opacity="0.3" rx="1" ry="1" stroke="black" width="25" x="0" y="114" /><text fill="black" font-family="Montserrat" font-size="12" x="5" y="126">24</text><rect fill="red" height="16" opacity="1" rx="5" ry="5" stroke="red" width="50" x="35" y="114" /><text fill="white" font-family="Montserrat" font-size="12" x="40" y="126">3V3_EN</text><rect fill="white" height="16" opacity="0.3" rx="1" ry="1" stroke="black" width="25" x="0" y="133" /><text fill="black" font-family="Montserrat" font-size="12" x="5" y="145">25</text><rect fill="red" height="16" opacity="1" rx="5" ry="5" stroke="red" width="50" x="35" y="133" /><text fill="white" font-family="Montserrat" font-size="12" x="40" y="145">3V3</text><rect fill="white" height="16" opacity="0.3" rx="1" ry="1" stroke="black" width="25" x="0" y="152" /><text fill="black" font-family="Montserrat" font-size="12" x="5" y="164">26</text><rect fill="green" height="16" opacity="0.3" rx="1" ry="1" stroke="green" width="55" x="35" y="152" /><text fill="black" font-family="Montserrat" font-size="12" x="40" y="164">GPIO10</text><rect fill="green" height="16" opacity="0.6" rx="1" ry="1" stroke="green" width="35" x="90" y="152" /><text fill="white" font-family="Montserrat" font-size="12" x="95" y="164">D10</text><rect fill="green" height="16" opacity="0.9" rx="1" ry="1" stroke="green" width="35" x="125" y="152" /><text fill="white" font-family="Montserrat" font-size="12" x="130" y="164">A9</text><rect fill="gray" height="16" opacity="0.9" rx="5" ry="5" stroke="gray" width="40" x="170" y="152" /><text fill="white" font-family="Montserrat" font-size="12" x="175" y="164">PWM</text><rect fill="purple" height="16" opacity="0.3" rx="5" ry="5" stroke="purple" width="85" x="220" y="152" /><text fill="black" font-family="Montserrat" font-size="12" x="225" y="164">ADCH1_CH9   </text><rect fill="yellow" height="16" opacity="1" rx="1" ry="1" stroke="yellow" width="65" x="315" y="152" /><text fill="black" font-family="Montserrat" font-size="12" x="320" y="164">TOUCH10</text><rect fill="purple" height="16" opacity="1" rx="1" ry="1" stroke="purple" width="35" x="390" y="152" /><text fill="white" font-family="Montserrat" font-size="12" x="395" y="164">RTC</text><rect fill="white" height="16" opacity="0.3" rx="1" ry="1" stroke="black" width="25" x="0" y="171" /><text fill="black" font-family="Montserrat" font-size="12" x="5" y="183">27</text><rect fill="green" height="16" opacity="0.3" rx="1" ry="1" stroke="green" width="55" x="35" y="171" /><text fill="black" font-family="Montserrat" font-size="12" x="40" y="183">GPIO09</text><rect fill="green" height="16" opacity="0.6" rx="1" ry="1" stroke="green" width="35" x="90" y="171" /><text fill="white" font-family="Montserrat" font-size="12" x="95" y="183">D9</text><rect fill="green" height="16" opacity="0.9" rx="1" ry="1" stroke="green" width="35" x="125" y="171" /><text fill="white" font-family="Montserrat" font-size="12" x="130" y="183">A8</text><rect fill="gray" height="16" opacity="0.9" rx="5" ry="5" stroke="gray" width="40" x="170" y="171" /><text fill="white" font-family="Montserrat" font-size="12" x="175" y="183">PWM</text><rect fill="purple" height="16" opacity="0.3" rx="5" ry="5" stroke="purple" width="85" x="220" y="171" /><text fill="black" font-family="Montserrat" font-size="12" x="225" y="183">ADCH1_CH8   </text><rect fill="yellow" height="16" opacity="1" rx="1" ry="1" stroke="yellow" width="65" x="315" y="171" /><text fill="black" font-family="Montserrat" font-size="12" x="320" y="183">TOUCH9</text><rect fill="purple" height="16" opacity="1" rx="1" ry="1" stroke="purple" width="35" x="390" y="171" /><text fill="white" font-family="Montserrat" font-size="12" x="395" y="183">RTC</text><rect fill="white" height="16" opacity="0.3" rx="1" ry="1" stroke="black" width="25" x="0" y="190" /><text fill="black" font-family="Montserrat" font-size="12" x="5" y="202">28</text><rect fill="black" height="16" opacity="1" rx="5" ry="5" stroke="black" width="35" x="35" y="190" /><text fill="white" font-family="Montserrat" font-size="12" x="40" y="202">GND</text><rect fill="white" height="16" opacity="0.3" rx="1" ry="1" stroke="black" width="25" x="0" y="209" /><text fill="black" font-family="Montserrat" font-size="12" x="5" y="221">29</text><rect fill="green" height="16" opacity="0.3" rx="1" ry="1" stroke="green" width="55" x="35" y="209" /><text fill="black" font-family="Montserrat" font-size="12" x="40" y="221">GPI0O8</text><rect fill="green" height="16" opacity="0.6" rx="1" ry="1" stroke="green" width="35" x="90" y="209" /><text fill="white" font-family="Montserrat" font-size="12" x="95" y="221">D8</text><rect fill="green" height="16" opacity="0.9" rx="1" ry="1" stroke="green" width="35" x="125" y="209" /><text fill="white" font-family="Montserrat" font-size="12" x="130" y="221">A7</text><rect fill="gray" height="16" opacity="0.9" rx="5" ry="5" stroke="gray" width="40" x="170" y="209" /><text fill="white" font-family="Montserrat" font-size="12" x="175" y="221">PWM</text><rect fill="purple" height="16" opacity="0.3" rx="5" ry="5" stroke="purple" width="85" x="220" y="209" /><text fill="black" font-family="Montserrat" font-size="12" x="225" y="221">ADCH1_CH7   </text><rect fill="yellow" height="16" opacity="1" rx="1" ry="1" stroke="yellow" width="65" x="315" y="209" /><text fill="black" font-family="Montserrat" font-size="12" x="320" y="221">TOUCH8</text><rect fill="purple" height="16" opacity="1" rx="1" ry="1" stroke="purple" width="35" x="390" y="209" /><text fill="white" font-family="Montserrat" font-size="12" x="395" y="221">RTC</text><rect fill="white" height="16" opacity="0.3" rx="1" ry="1" stroke="black" width="25" x="0" y="228" /><text fill="black" font-family="Montserrat" font-size="12" x="5" y="240">30</text><rect fill="green" height="16" opacity="0.3" rx="1" ry="1" stroke="green" width="55" x="35" y="228" /><text fill="black" font-family="Montserrat" font-size="12" x="40" y="240">GPIO07</text><rect fill="green" height="16" opacity="0.6" rx="1" ry="1" stroke="green" width="35" x="90" y="228" /><text fill="white" font-family="Montserrat" font-size="12" x="95" y="240">D7</text><rect fill="green" height="16" opacity="0.9" rx="1" ry="1" stroke="green" width="35" x="125" y="228" /><text fill="white" font-family="Montserrat" font-size="12" x="130" y="240">A6</text><rect fill="gray" height="16" opacity="0.9" rx="5" ry="5" stroke="gray" width="40" x="170" y="228" /><text fill="white" font-family="Montserrat" font-size="12" x="175" y="240">PWM</text><rect fill="purple" height="16" opacity="0.3" rx="5" ry="5" stroke="purple" width="85" x="220" y="228" /><text fill="black" font-family="Montserrat" font-size="12" x="225" y="240">ADCH1_CH6   </text><rect fill="yellow" height="16" opacity="1" rx="1" ry="1" stroke="yellow" width="65" x="315" y="228" /><text fill="black" font-family="Montserrat" font-size="12" x="320" y="240">TOUCH7</text><rect fill="purple" height="16" opacity="1" rx="1" ry="1" stroke="purple" width="35" x="390" y="228" /><text fill="white" font-family="Montserrat" font-size="12" x="395" y="240">RTC</text><rect fill="white" height="16" opacity="0.3" rx="1" ry="1" stroke="black" width="25" x="0" y="247" /><text fill="black" font-family="Montserrat" font-size="12" x="5" y="259">31</text><rect fill="red" height="16" opacity="1" rx="5" ry="5" stroke="red" width="50" x="35" y="247" /><text fill="white" font-family="Montserrat" font-size="12" x="40" y="259">RUN</text><rect fill="white" height="16" opacity="0.3" rx="1" ry="1" stroke="black" width="25" x="0" y="266" /><text fill="black" font-family="Montserrat" font-size="12" x="5" y="278">32</text><rect fill="green" height="16" opacity="0.3" rx="1" ry="1" stroke="green" width="55" x="35" y="266" /><text fill="black" font-family="Montserrat" font-size="12" x="40" y="278">GPIO06</text><rect fill="green" height="16" opacity="0.6" rx="1" ry="1" stroke="green" width="35" x="90" y="266" /><text fill="white" font-family="Montserrat" font-size="12" x="95" y="278">D6</text><rect fill="green" height="16" opacity="0.9" rx="1" ry="1" stroke="green" width="35" x="125" y="266" /><text fill="white" font-family="Montserrat" font-size="12" x="130" y="278">A5</text><rect fill="gray" height="16" opacity="0.9" rx="5" ry="5" stroke="gray" width="40" x="170" y="266" /><text fill="white" font-family="Montserrat" font-size="12" x="175" y="278">PWM</text><rect fill="purple" height="16" opacity="0.3" rx="5" ry="5" stroke="purple" width="85" x="220" y="266" /><text fill="black" font-family="Montserrat" font-size="12" x="225" y="278">ADCH1_CH5   </text><rect fill="yellow" height="16" opacity="1" rx="1" ry="1" stroke="yellow" width="65" x="315" y="266" /><text fill="black" font-family="Montserrat" font-size="12" x="320" y="278">TOUCH6</text><rect fill="purple" height="16" opacity="1" rx="1" ry="1" stroke="purple" width="35" x="390" y="266" /><text fill="white" font-family="Montserrat" font-size="12" x="395" y="278">RTC</text><rect fill="white" height="16" opacity="0.3" rx="1" ry="1" stroke="black" width="25" x="0" y="285" /><text fill="black" font-family="Montserrat" font-size="12" x="5" y="297">33</text><rect fill="black" height="16" opacity="1" rx="5" ry="5" stroke="black" width="35" x="35" y="285" /><text fill="white" font-family="Montserrat" font-size="12" x="40" y="297">GND</text><rect fill="white" height="16" opacity="0.3" rx="1" ry="1" stroke="black" width="25" x="0" y="304" /><text fill="black" font-family="Montserrat" font-size="12" x="5" y="316">34</text><rect fill="green" height="16" opacity="0.3" rx="1" ry="1" stroke="green" width="55" x="35" y="304" /><text fill="black" font-family="Montserrat" font-size="12" x="40" y="316">GPIO05</text><rect fill="green" height="16" opacity="0.6" rx="1" ry="1" stroke="green" width="35" x="90" y="304" /><text fill="white" font-family="Montserrat" font-size="12" x="95" y="316">D5</text><rect fill="green" height="16" opacity="0.9" rx="1" ry="1" stroke="green" width="35" x="125" y="304" /><text fill="white" font-family="Montserrat" font-size="12" x="130" y="316">A4</text><rect fill="gray" height="16" opacity="0.9" rx="5" ry="5" stroke="gray" width="40" x="170" y="304" /><text fill="white" font-family="Montserrat" font-size="12" x="175" y="316">PWM</text><rect fill="purple" height="16" opacity="0.3" rx="5" ry="5" stroke="purple" width="85" x="220" y="304" /><text fill="black" font-family="Montserrat" font-size="12" x="225" y="316">ADCH1_CH4   </text><rect fill="yellow" height="16" opacity="1" rx="1" ry="1" stroke="yellow" width="65" x="315" y="304" /><text fill="black" font-family="Montserrat" font-size="12" x="320" y="316">TOUCH5</text><rect fill="purple" height="16" opacity="1" rx="1" ry="1" stroke="purple" width="35" x="390" y="304" /><text fill="white" font-family="Montserrat" font-size="12" x="395" y="316">RTC</text><rect fill="white" height="16" opacity="0.3" rx="1" ry="1" stroke="black" width="25" x="0" y="323" /><text fill="black" font-family="Montserrat" font-size="12" x="5" y="335">35</text><rect fill="green" height="16" opacity="0.3" rx="1" ry="1" stroke="green" width="55" x="35" y="323" /><text fill="black" font-family="Montserrat" font-size="12" x="40" y="335">GPIO04</text><rect fill="green" height="16" opacity="0.6" rx="1" ry="1" stroke="green" width="35" x="90" y="323" /><text fill="white" font-family="Montserrat" font-size="12" x="95" y="335">D4</text><rect fill="green" height="16" opacity="0.9" rx="1" ry="1" stroke="green" width="35" x="125" y="323" /><text fill="white" font-family="Montserrat" font-size="12" x="130" y="335">A3</text><rect fill="gray" height="16" opacity="0.9" rx="5" ry="5" stroke="gray" width="40" x="170" y="323" /><text fill="white" font-family="Montserrat" font-size="12" x="175" y="335">PWM</text><rect fill="purple" height="16" opacity="0.3" rx="5" ry="5" stroke="purple" width="85" x="220" y="323" /><text fill="black" font-family="Montserrat" font-size="12" x="225" y="335">ADCH1_CH3   </text><rect fill="yellow" height="16" opacity="1" rx="1" ry="1" stroke="yellow" width="65" x="315" y="323" /><text fill="black" font-family="Montserrat" font-size="12" x="320" y="335">TOUCH4</text><rect fill="purple" height="16" opacity="1" rx="1" ry="1" stroke="purple" width="35" x="390" y="323" /><text fill="white" font-family="Montserrat" font-size="12" x="395" y="335">RTC</text><rect fill="white" height="16" opacity="0.3" rx="1" ry="1" stroke="black" width="25" x="0" y="342" /><text fill="black" font-family="Montserrat" font-size="12" x="5" y="354">36</text><rect fill="green" height="16" opacity="0.3" rx="1" ry="1" stroke="green" width="55" x="35" y="342" /><text fill="black" font-family="Montserrat" font-size="12" x="40" y="354">GPIO02</text><rect fill="green" height="16" opacity="0.6" rx="1" ry="1" stroke="green" width="35" x="90" y="342" /><text fill="white" font-family="Montserrat" font-size="12" x="95" y="354">D2</text><rect fill="green" height="16" opacity="0.9" rx="1" ry="1" stroke="green" width="35" x="125" y="342" /><text fill="white" font-family="Montserrat" font-size="12" x="130" y="354">A2</text><rect fill="gray" height="16" opacity="0.9" rx="5" ry="5" stroke="gray" width="40" x="170" y="342" /><text fill="white" font-family="Montserrat" font-size="12" x="175" y="354">PWM</text><rect fill="purple" height="16" opacity="0.3" rx="5" ry="5" stroke="purple" width="85" x="220" y="342" /><text fill="black" font-family="Montserrat" font-size="12" x="225" y="354">ADCH1_CH1   </text><rect fill="yellow" height="16" opacity="1" rx="1" ry="1" stroke="yellow" width="65" x="315" y="342" /><text fill="black" font-family="Montserrat" font-size="12" x="320" y="354">TOUCH2</text><rect fill="orange" height="16" opacity="0.3" rx="1" ry="1" stroke="orange" width="50" x="390" y="342" /><text fill="black" font-family="Montserrat" font-size="12" x="395" y="354">MOSI</text><rect fill="purple" height="16" opacity="1" rx="1" ry="1" stroke="purple" width="35" x="450" y="342" /><text fill="white" font-family="Montserrat" font-size="12" x="455" y="354">RTC</text><rect fill="white" height="16" opacity="0.3" rx="1" ry="1" stroke="black" width="25" x="0" y="361" /><text fill="black" font-family="Montserrat" font-size="12" x="5" y="373">37</text><rect fill="green" height="16" opacity="0.3" rx="1" ry="1" stroke="green" width="55" x="35" y="361" /><text fill="black" font-family="Montserrat" font-size="12" x="40" y="373">GPIO01</text><rect fill="green" height="16" opacity="0.6" rx="1" ry="1" stroke="green" width="35" x="90" y="361" /><text fill="white" font-family="Montserrat" font-size="12" x="95" y="373">D1</text><rect fill="green" height="16" opacity="0.9" rx="1" ry="1" stroke="green" width="35" x="125" y="361" /><text fill="white" font-family="Montserrat" font-size="12" x="130" y="373">A1</text><rect fill="gray" height="16" opacity="0.9" rx="5" ry="5" stroke="gray" width="40" x="170" y="361" /><text fill="white" font-family="Montserrat" font-size="12" x="175" y="373">PWM</text><rect fill="purple" height="16" opacity="0.3" rx="5" ry="5" stroke="purple" width="85" x="220" y="361" /><text fill="black" font-family="Montserrat" font-size="12" x="225" y="373">ADCH1_CH0   </text><rect fill="yellow" height="16" opacity="1" rx="1" ry="1" stroke="yellow" width="65" x="315" y="361" /><text fill="black" font-family="Montserrat" font-size="12" x="320" y="373">TOUCH1</text><rect fill="orange" height="16" opacity="0.3" rx="1" ry="1" stroke="orange" width="50" x="390" y="361" /><text fill="black" font-family="Montserrat" font-size="12" x="395" y="373">SCK</text><rect fill="purple" height="16" opacity="1" rx="1" ry="1" stroke="purple" width="35" x="450" y="361" /><text fill="white" font-family="Montserrat" font-size="12" x="455" y="373">RTC</text><rect fill="white" height="16" opacity="0.3" rx="1" ry="1" stroke="black" width="25" x="0" y="380" /><text fill="black" font-family="Montserrat" font-size="12" x="5" y="392">38</text><rect fill="black" height="16" opacity="1" rx="5" ry="5" stroke="black" width="35" x="35" y="380" /><text fill="white" font-family="Montserrat" font-size="12" x="40" y="392">GND</text><rect fill="white" height="16" opacity="0.3" rx="1" ry="1" stroke="black" width="25" x="0" y="399" /><text fill="black" font-family="Montserrat" font-size="12" x="5" y="411">39</text><rect fill="green" height="16" opacity="0.3" rx="1" ry="1" stroke="green" width="55" x="35" y="399" /><text fill="black" font-family="Montserrat" font-size="12" x="40" y="411">GPIO41</text><rect fill="green" height="16" opacity="0.6" rx="1" ry="1" stroke="green" width="35" x="90" y="399" /><text fill="white" font-family="Montserrat" font-size="12" x="95" y="411">D41</text><rect fill="gray" height="16" opacity="0.9" rx="5" ry="5" stroke="gray" width="40" x="135" y="399" /><text fill="white" font-family="Montserrat" font-size="12" x="140" y="411">PWM</text><rect fill="blue" height="16" opacity="0.7" rx="5" ry="5" stroke="blue" width="50" x="185" y="399" /><text fill="white" font-family="Montserrat" font-size="12" x="190" y="411">MTDI</text><rect fill="orange" height="16" opacity="0.3" rx="1" ry="1" stroke="orange" width="50" x="245" y="399" /><text fill="black" font-family="Montserrat" font-size="12" x="250" y="411">CS</text><rect fill="white" height="16" opacity="0.3" rx="1" ry="1" stroke="black" width="25" x="0" y="418" /><text fill="black" font-family="Montserrat" font-size="12" x="5" y="430">40</text><rect fill="green" height="16" opacity="0.3" rx="1" ry="1" stroke="green" width="55" x="35" y="418" /><text fill="black" font-family="Montserrat" font-size="12" x="40" y="430">GPIO42</text><rect fill="green" height="16" opacity="0.6" rx="1" ry="1" stroke="green" width="35" x="90" y="418" /><text fill="white" font-family="Montserrat" font-size="12" x="95" y="430">D42</text><rect fill="gray" height="16" opacity="0.9" rx="5" ry="5" stroke="gray" width="40" x="135" y="418" /><text fill="white" font-family="Montserrat" font-size="12" x="140" y="430">PWM</text><rect fill="blue" height="16" opacity="0.7" rx="5" ry="5" stroke="blue" width="50" x="185" y="418" /><text fill="white" font-family="Montserrat" font-size="12" x="190" y="430">MTMS</text><rect fill="orange" height="16" opacity="0.3" rx="1" ry="1" stroke="orange" width="50" x="245" y="418" /><text fill="black" font-family="Montserrat" font-size="12" x="250" y="430">MISO</text><rect fill="white" height="16" opacity="0.3" rx="1" ry="1" stroke="black" width="25" x="1021" y="513" /><text fill="black" font-family="Montserrat" font-size="12" x="1026" y="525">1</text><rect fill="green" height="16" opacity="0.3" rx="1" ry="1" stroke="green" width="55" x="956" y="513" /><text fill="black" font-family="Montserrat" font-size="12" x="961" y="525">GPIO11</text><rect fill="green" height="16" opacity="0.6" rx="1" ry="1" stroke="green" width="35" x="921" y="513" /><text fill="white" font-family="Montserrat" font-size="12" x="926" y="525">D11</text><rect fill="green" height="16" opacity="0.9" rx="1" ry="1" stroke="green" width="35" x="886" y="513" /><text fill="white" font-family="Montserrat" font-size="12" x="891" y="525">A10</text><rect fill="gray" height="16" opacity="0.9" rx="5" ry="5" stroke="gray" width="40" x="836" y="513" /><text fill="white" font-family="Montserrat" font-size="12" x="841" y="525">PWM</text><rect fill="yellow" height="16" opacity="1" rx="1" ry="1" stroke="yellow" width="65" x="761" y="513" /><text fill="black" font-family="Montserrat" font-size="12" x="766" y="525">TOUCH11</text><rect fill="orange" height="16" opacity="1" rx="5" ry="5" stroke="orange" width="50" x="701" y="513" /><text fill="black" font-family="Montserrat" font-size="12" x="706" y="525">U1TXD</text><rect fill="purple" height="16" opacity="1" rx="1" ry="1" stroke="purple" width="35" x="656" y="513" /><text fill="white" font-family="Montserrat" font-size="12" x="661" y="525">RTC</text><rect fill="white" height="16" opacity="0.3" rx="1" ry="1" stroke="black" width="25" x="1021" y="532" /><text fill="black" font-family="Montserrat" font-size="12" x="1026" y="544">2</text><rect fill="green" height="16" opacity="0.3" rx="1" ry="1" stroke="green" width="55" x="956" y="532" /><text fill="black" font-family="Montserrat" font-size="12" x="961" y="544">GPIO12</text><rect fill="green" height="16" opacity="0.6" rx="1" ry="1" stroke="green" width="35" x="921" y="532" /><text fill="white" font-family="Montserrat" font-size="12" x="926" y="544">D12</text><rect fill="green" height="16" opacity="0.9" rx="1" ry="1" stroke="green" width="35" x="886" y="532" /><text fill="white" font-family="Montserrat" font-size="12" x="891" y="544">A11</text><rect fill="gray" height="16" opacity="0.9" rx="5" ry="5" stroke="gray" width="40" x="836" y="532" /><text fill="white" font-family="Montserrat" font-size="12" x="841" y="544">PWM</text><rect fill="yellow" height="16" opacity="1" rx="1" ry="1" stroke="yellow" width="65" x="761" y="532" /><text fill="black" font-family="Montserrat" font-size="12" x="766" y="544">TOUCH12</text><rect fill="orange" height="16" opacity="1" rx="5" ry="5" stroke="orange" width="50" x="701" y="532" /><text fill="black" font-family="Montserrat" font-size="12" x="706" y="544">U1RXD</text><rect fill="purple" height="16" opacity="1" rx="1" ry="1" stroke="purple" width="35" x="656" y="532" /><text fill="white" font-family="Montserrat" font-size="12" x="661" y="544">RTC</text><rect fill="white" height="16" opacity="0.3" rx="1" ry="1" stroke="black" width="25" x="1021" y="551" /><text fill="black" font-family="Montserrat" font-size="12" x="1026" y="563">3</text><rect fill="black" height="16" opacity="1" rx="5" ry="5" stroke="black" width="35" x="976" y="551" /><text fill="white" font-family="Montserrat" font-size="12" x="981" y="563">GND</text><rect fill="white" height="16" opacity="0.3" rx="1" ry="1" stroke="black" width="25" x="1021" y="570" /><text fill="black" font-family="Montserrat" font-size="12" x="1026" y="582">4</text><rect fill="green" height="16" opacity="0.3" rx="1" ry="1" stroke="green" width="55" x="956" y="570" /><text fill="black" font-family="Montserrat" font-size="12" x="961" y="582">GPIO13</text><rect fill="green" height="16" opacity="0.6" rx="1" ry="1" stroke="green" width="35" x="921" y="570" /><text fill="white" font-family="Montserrat" font-size="12" x="926" y="582">D13</text><rect fill="green" height="16" opacity="0.9" rx="1" ry="1" stroke="green" width="35" x="886" y="570" /><text fill="white" font-family="Montserrat" font-size="12" x="891" y="582">A12</text><rect fill="gray" height="16" opacity="0.9" rx="5" ry="5" stroke="gray" width="40" x="836" y="570" /><text fill="white" font-family="Montserrat" font-size="12" x="841" y="582">PWM</text><rect fill="yellow" height="16" opacity="1" rx="1" ry="1" stroke="yellow" width="65" x="761" y="570" /><text fill="black" font-family="Montserrat" font-size="12" x="766" y="582">TOUCH13</text><rect fill="purple" height="16" opacity="1" rx="1" ry="1" stroke="purple" width="35" x="716" y="570" /><text fill="white" font-family="Montserrat" font-size="12" x="721" y="582">RTC</text><rect fill="white" height="16" opacity="0.3" rx="1" ry="1" stroke="black" width="25" x="1021" y="589" /><text fill="black" font-family="Montserrat" font-size="12" x="1026" y="601">5</text><rect fill="green" height="16" opacity="0.3" rx="1" ry="1" stroke="green" width="55" x="956" y="589" /><text fill="black" font-family="Montserrat" font-size="12" x="961" y="601">GPIO14</text><rect fill="green" height="16" opacity="0.6" rx="1" ry="1" stroke="green" width="35" x="921" y="589" /><text fill="white" font-family="Montserrat" font-size="12" x="926" y="601">D14</text><rect fill="green" height="16" opacity="0.9" rx="1" ry="1" stroke="green" width="35" x="886" y="589" /><text fill="white" font-family="Montserrat" font-size="12" x="891" y="601">A13</text><rect fill="gray" height="16" opacity="0.9" rx="5" ry="5" stroke="gray" width="40" x="836" y="589" /><text fill="white" font-family="Montserrat" font-size="12" x="841" y="601">PWM</text><rect fill="yellow" height="16" opacity="1" rx="1" ry="1" stroke="yellow" width="65" x="761" y="589" /><text fill="black" font-family="Montserrat" font-size="12" x="766" y="601">TOUCH14</text><rect fill="purple" height="16" opacity="1" rx="1" ry="1" stroke="purple" width="35" x="716" y="589" /><text fill="white" font-family="Montserrat" font-size="12" x="721" y="601">RTC</text><rect fill="white" height="16" opacity="0.3" rx="1" ry="1" stroke="black" width="25" x="1021" y="608" /><text fill="black" font-family="Montserrat" font-size="12" x="1026" y="620">6</text><rect fill="green" height="16" opacity="0.3" rx="1" ry="1" stroke="green" width="55" x="956" y="608" /><text fill="black" font-family="Montserrat" font-size="12" x="961" y="620">GPIO15</text><rect fill="green" height="16" opacity="0.6" rx="1" ry="1" stroke="green" width="35" x="921" y="608" /><text fill="white" font-family="Montserrat" font-size="12" x="926" y="620">D15</text><rect fill="green" height="16" opacity="0.9" rx="1" ry="1" stroke="green" width="35" x="886" y="608" /><text fill="white" font-family="Montserrat" font-size="12" x="891" y="620">A14</text><rect fill="gray" height="16" opacity="0.9" rx="5" ry="5" stroke="gray" width="40" x="836" y="608" /><text fill="white" font-family="Montserrat" font-size="12" x="841" y="620">PWM</text><rect fill="orange" height="16" opacity="1" rx="5" ry="5" stroke="orange" width="50" x="776" y="608" /><text fill="black" font-family="Montserrat" font-size="12" x="781" y="620">U0RTS</text><rect fill="purple" height="16" opacity="1" rx="1" ry="1" stroke="purple" width="35" x="731" y="608" /><text fill="white" font-family="Montserrat" font-size="12" x="736" y="620">RTC</text><rect fill="white" height="16" opacity="0.3" rx="1" ry="1" stroke="black" width="25" x="1021" y="627" /><text fill="black" font-family="Montserrat" font-size="12" x="1026" y="639">7</text><rect fill="green" height="16" opacity="0.3" rx="1" ry="1" stroke="green" width="55" x="956" y="627" /><text fill="black" font-family="Montserrat" font-size="12" x="961" y="639">GPIO16</text><rect fill="green" height="16" opacity="0.6" rx="1" ry="1" stroke="green" width="35" x="921" y="627" /><text fill="white" font-family="Montserrat" font-size="12" x="926" y="639">D16</text><rect fill="green" height="16" opacity="0.9" rx="1" ry="1" stroke="green" width="35" x="886" y="627" /><text fill="white" font-family="Montserrat" font-size="12" x="891" y="639">A15</text><rect fill="gray" height="16" opacity="0.9" rx="5" ry="5" stroke="gray" width="40" x="836" y="627" /><text fill="white" font-family="Montserrat" font-size="12" x="841" y="639">PWM</text><rect fill="orange" height="16" opacity="1" rx="5" ry="5" stroke="orange" width="50" x="776" y="627" /><text fill="black" font-family="Montserrat" font-size="12" x="781" y="639">U0CTS</text><rect fill="purple" height="16" opacity="1" rx="1" ry="1" stroke="purple" width="35" x="731" y="627" /><text fill="white" font-family="Montserrat" font-size="12" x="736" y="639">RTC</text><rect fill="white" height="16" opacity="0.3" rx="1" ry="1" stroke="black" width="25" x="1021" y="646" /><text fill="black" font-family="Montserrat" font-size="12" x="1026" y="658">8</text><rect fill="black" height="16" opacity="1" rx="5" ry="5" stroke="black" width="35" x="976" y="646" /><text fill="white" font-family="Montserrat" font-size="12" x="981" y="658">GND</text><rect fill="white" height="16" opacity="0.3" rx="1" ry="1" stroke="black" width="25" x="1021" y="665" /><text fill="black" font-family="Montserrat" font-size="12" x="1026" y="677">9</text><rect fill="green" height="16" opacity="0.3" rx="1" ry="1" stroke="green" width="55" x="956" y="665" /><text fill="black" font-family="Montserrat" font-size="12" x="961" y="677">GPIO17</text><rect fill="green" height="16" opacity="0.6" rx="1" ry="1" stroke="green" width="35" x="921" y="665" /><text fill="white" font-family="Montserrat" font-size="12" x="926" y="677">D17</text><rect fill="green" height="16" opacity="0.9" rx="1" ry="1" stroke="green" width="35" x="886" y="665" /><text fill="white" font-family="Montserrat" font-size="12" x="891" y="677">A16</text><rect fill="gray" height="16" opacity="0.9" rx="5" ry="5" stroke="gray" width="40" x="836" y="665" /><text fill="white" font-family="Montserrat" font-size="12" x="841" y="677">PWM</text><rect fill="orange" height="16" opacity="0.6" rx="5" ry="5" stroke="orange" width="35" x="791" y="665" /><text fill="black" font-family="Montserrat" font-size="12" x="796" y="677">SDA</text><rect fill="purple" height="16" opacity="1" rx="1" ry="1" stroke="purple" width="35" x="746" y="665" /><text fill="white" font-family="Montserrat" font-size="12" x="751" y="677">RTC</text><rect fill="white" height="16" opacity="0.3" rx="1" ry="1" stroke="black" width="25" x="1021" y="684" /><text fill="black" font-family="Montserrat" font-size="12" x="1026" y="696">10</text><rect fill="green" height="16" opacity="0.3" rx="1" ry="1" stroke="green" width="55" x="956" y="684" /><text fill="black" font-family="Montserrat" font-size="12" x="961" y="696">GPIO18</text><rect fill="green" height="16" opacity="0.6" rx="1" ry="1" stroke="green" width="35" x="921" y="684" /><text fill="white" font-family="Montserrat" font-size="12" x="926" y="696">D18</text><rect fill="green" height="16" opacity="0.9" rx="1" ry="1" stroke="green" width="35" x="886" y="684" /><text fill="white" font-family="Montserrat" font-size="12" x="891" y="696">A17</text><rect fill="gray" height="16" opacity="0.9" rx="5" ry="5" stroke="gray" width="40" x="836" y="684" /><text fill="white" font-family="Montserrat" font-size="12" x="841" y="696">PWM</text><rect fill="orange" height="16" opacity="0.6" rx="5" ry="5" stroke="orange" width="35" x="791" y="684" /><text fill="black" font-family="Montserrat" font-size="12" x="796" y="696">SCL</text><rect fill="purple" height="16" opacity="1" rx="1" ry="1" stroke="purple" width="35" x="746" y="684" /><text fill="white" font-family="Montserrat" font-size="12" x="751" y="696">RTC</text><rect fill="white" height="16" opacity="0.3" rx="1" ry="1" stroke="black" width="25" x="1021" y="703" /><text fill="black" font-family="Montserrat" font-size="12" x="1026" y="715">11</text><rect fill="green" height="16" opacity="0.3" rx="1" ry="1" stroke="green" width="55" x="956" y="703" /><text fill="black" font-family="Montserrat" font-size="12" x="961" y="715">GPIO33</text><rect fill="green" height="16" opacity="0.6" rx="1" ry="1" stroke="green" width="35" x="921" y="703" /><text fill="white" font-family="Montserrat" font-size="12" x="926" y="715">D33</text><rect fill="gray" height="16" opacity="0.9" rx="5" ry="5" stroke="gray" width="40" x="871" y="703" /><text fill="white" font-family="Montserrat" font-size="12" x="876" y="715">PWM</text><rect fill="white" height="16" opacity="0.3" rx="1" ry="1" stroke="black" width="25" x="1021" y="722" /><text fill="black" font-family="Montserrat" font-size="12" x="1026" y="734">12</text><rect fill="green" height="16" opacity="0.3" rx="1" ry="1" stroke="green" width="55" x="956" y="722" /><text fill="black" font-family="Montserrat" font-size="12" x="961" y="734">GPIO34</text><rect fill="green" height="16" opacity="0.6" rx="1" ry="1" stroke="green" width="35" x="921" y="722" /><text fill="white" font-family="Montserrat" font-size="12" x="926" y="734">D34</text><rect fill="gray" height="16" opacity="0.9" rx="5" ry="5" stroke="gray" width="40" x="871" y="722" /><text fill="white" font-family="Montserrat" font-size="12" x="876" y="734">PWM</text><rect fill="white" height="16" opacity="0.3" rx="1" ry="1" stroke="black" width="25" x="1021" y="741" /><text fill="black" font-family="Montserrat" font-size="12" x="1026" y="753">13</text><rect fill="black" height="16" opacity="1" rx="5" ry="5" stroke="black" width="35" x="976" y="741" /><text fill="white" font-family="Montserrat" font-size="12" x="981" y="753">GND</text><rect fill="white" height="16" opacity="0.3" rx="1" ry="1" stroke="black" width="25" x="1021" y="760" /><text fill="black" font-family="Montserrat" font-size="12" x="1026" y="772">14</text><rect fill="green" height="16" opacity="0.3" rx="1" ry="1" stroke="green" width="55" x="956" y="760" /><text fill="black" font-family="Montserrat" font-size="12" x="961" y="772">GPIO35</text><rect fill="green" height="16" opacity="0.6" rx="1" ry="1" stroke="green" width="35" x="921" y="760" /><text fill="white" font-family="Montserrat" font-size="12" x="926" y="772">D35</text><rect fill="gray" height="16" opacity="0.9" rx="5" ry="5" stroke="gray" width="40" x="871" y="760" /><text fill="white" font-family="Montserrat" font-size="12" x="876" y="772">PWM</text><rect fill="white" height="16" opacity="0.3" rx="1" ry="1" stroke="black" width="25" x="1021" y="779" /><text fill="black" font-family="Montserrat" font-size="12" x="1026" y="791">15</text><rect fill="green" height="16" opacity="0.3" rx="1" ry="1" stroke="green" width="55" x="956" y="779" /><text fill="black" font-family="Montserrat" font-size="12" x="961" y="791">GPIO36</text><rect fill="green" height="16" opacity="0.6" rx="1" ry="1" stroke="green" width="35" x="921" y="779" /><text fill="white" font-family="Montserrat" font-size="12" x="926" y="791">D36</text><rect fill="gray" height="16" opacity="0.9" rx="5" ry="5" stroke="gray" width="40" x="871" y="779" /><text fill="white" font-family="Montserrat" font-size="12" x="876" y="791">PWM</text><rect fill="white" height="16" opacity="0.3" rx="1" ry="1" stroke="black" width="25" x="1021" y="798" /><text fill="black" font-family="Montserrat" font-size="12" x="1026" y="810">16</text><rect fill="green" height="16" opacity="0.3" rx="1" ry="1" stroke="green" width="55" x="956" y="798" /><text fill="black" font-family="Montserrat" font-size="12" x="961" y="810">GPIO37</text><rect fill="green" height="16" opacity="0.6" rx="1" ry="1" stroke="green" width="35" x="921" y="798" /><text fill="white" font-family="Montserrat" font-size="12" x="926" y="810">D37</text><rect fill="gray" height="16" opacity="0.9" rx="5" ry="5" stroke="gray" width="40" x="871" y="798" /><text fill="white" font-family="Montserrat" font-size="12" x="876" y="810">PWM</text><rect fill="white" height="16" opacity="0.3" rx="1" ry="1" stroke="black" width="25" x="1021" y="817" /><text fill="black" font-family="Montserrat" font-size="12" x="1026" y="829">17</text><rect fill="green" height="16" opacity="0.3" rx="1" ry="1" stroke="green" width="55" x="956" y="817" /><text fill="black" font-family="Montserrat" font-size="12" x="961" y="829">GPIO38</text><rect fill="green" height="16" opacity="0.6" rx="1" ry="1" stroke="green" width="35" x="921" y="817" /><text fill="white" font-family="Montserrat" font-size="12" x="926" y="829">D38</text><rect fill="gray" height="16" opacity="0.9" rx="5" ry="5" stroke="gray" width="40" x="871" y="817" /><text fill="white" font-family="Montserrat" font-size="12" x="876" y="829">PWM</text><rect fill="white" height="16" opacity="0.3" rx="1" ry="1" stroke="black" width="25" x="1021" y="836" /><text fill="black" font-family="Montserrat" font-size="12" x="1026" y="848">18</text><rect fill="black" height="16" opacity="1" rx="5" ry="5" stroke="black" width="35" x="976" y="836" /><text fill="white" font-family="Montserrat" font-size="12" x="981" y="848">GND</text><rect fill="white" height="16" opacity="0.3" rx="1" ry="1" stroke="black" width="25" x="1021" y="855" /><text fill="black" font-family="Montserrat" font-size="12" x="1026" y="867">19</text><rect fill="green" height="16" opacity="0.3" rx="1" ry="1" stroke="green" width="55" x="956" y="855" /><text fill="black" font-family="Montserrat" font-size="12" x="961" y="867">GPIO39</text><rect fill="green" height="16" opacity="0.6" rx="1" ry="1" stroke="green" width="35" x="921" y="855" /><text fill="white" font-family="Montserrat" font-size="12" x="926" y="867">D39</text><rect fill="gray" height="16" opacity="0.9" rx="5" ry="5" stroke="gray" width="40" x="871" y="855" /><text fill="white" font-family="Montserrat" font-size="12" x="876" y="867">PWM</text><rect fill="blue" height="16" opacity="0.7" rx="5" ry="5" stroke="blue" width="50" x="811" y="855" /><text fill="white" font-family="Montserrat" font-size="12" x="816" y="867">MTCK</text><rect fill="white" height="16" opacity="0.3" rx="1" ry="1" stroke="black" width="25" x="1021" y="874" /><text fill="black" font-family="Montserrat" font-size="12" x="1026" y="886">20</text><rect fill="green" height="16" opacity="0.3" rx="1" ry="1" stroke="green" width="55" x="956" y="874" /><text fill="black" font-family="Montserrat" font-size="12" x="961" y="886">GPIO40</text><rect fill="green" height="16" opacity="0.6" rx="1" ry="1" stroke="green" width="35" x="921" y="874" /><text fill="white" font-family="Montserrat" font-size="12" x="926" y="886">D40</text><rect fill="gray" height="16" opacity="0.9" rx="5" ry="5" stroke="gray" width="40" x="871" y="874" /><text fill="white" font-family="Montserrat" font-size="12" x="876" y="886">PWM</text><rect fill="blue" height="16" opacity="0.7" rx="5" ry="5" stroke="blue" width="50" x="811" y="874" /><text fill="white" font-family="Montserrat" font-size="12" x="816" y="886">MTDO</text><rect fill="white" height="16" opacity="0.3" rx="1" ry="1" stroke="black" width="25" x="1021" y="893" /><text fill="black" font-family="Montserrat" font-size="12" x="1026" y="905">21</text><rect fill="green" height="16" opacity="0.3" rx="1" ry="1" stroke="green" width="55" x="956" y="893" /><text fill="black" font-family="Montserrat" font-size="12" x="961" y="905">GPIO21</text><rect fill="purple" height="16" opacity="0.3" rx="5" ry="5" stroke="purple" width="85" x="861" y="893" /><text fill="black" font-family="Montserrat" font-size="12" x="866" y="905">RGB LED</text><rect fill="white" height="16" opacity="0.3" rx="1" ry="1" stroke="black" width="25" x="1021" y="912" /><text fill="black" font-family="Montserrat" font-size="12" x="1026" y="924">22</text><rect fill="green" height="16" opacity="0.3" rx="1" ry="1" stroke="green" width="55" x="956" y="912" /><text fill="black" font-family="Montserrat" font-size="12" x="961" y="924">GPIO0</text><rect fill="purple" height="16" opacity="0.3" rx="5" ry="5" stroke="purple" width="85" x="861" y="912" /><text fill="black" font-family="Montserrat" font-size="12" x="866" y="924">BOOT0</text></svg>